# xmcd
#
# Track frame offsets:
#	150
#	13217
#	27923
#	41609
#	54731
#	67813
#	82501
#	95627
#	107832
#	122193
#	139206
#	152621
#	164910
#	177179
#	189397
#	203421
#	217327
#	233651
#	246130
#	261245
#
# Disc length: 3690 seconds
#
# Revision: 3
# Processed by: cddbd v1.5.2PL0 Copyright (c) Steve Scherf et al.
# Submitted via: audiograbber 1.83.01
#
DISCID=180e6814
DTITLE=Various Artist - CD-NH 1276 - Presenting... The Best of the Blues
DYEAR=2003
DGENRE=Blues
TTITLE0=Tampa Red - The Duck's Yas Yas
TTITLE1=Tampa Red - No Matter How She Done It
TTITLE2=Tampa Red - Seminole Blues
TTITLE3=Tampa Red - Denver Blues
TTITLE4=Jimmy Rushing - Don't Cry, Baby
TTITLE5=Jimmy Rushing - Boogie Woogie
TTITLE6=Jimmy Rushing - Baby Don't Tell On Me
TTITLE7=Jimmy Rushing - Jimmy's Blues
TTITLE8=Jimmy Rushing - Goin' To Chicago Blues
TTITLE9=John Lee Hooker - Goin' Mad Blues
TTITLE10=John Lee Hooker - Wandering Blues
TTITLE11=John Lee Hooker - House Rent Boogie
TTITLE12=John Lee Hooker - High Priced Woman
TTITLE13=Lonnie Johnson - Crowing Rooster Blues
TTITLE14=Lonnie Johnson - Lonnie's Got the Blues
TTITLE15=Lonnie Johnson - Lonesome Jail Blues
TTITLE16=Lonnie Johnson - Backwater Blues
TTITLE17=Lonnie Johnson - You Drove A Good Man Away
TTITLE18=Texas Alexander - Work Ox Blues
TTITLE19=Texas Alexander - The Risin' Sun
EXTD=
EXTT0=
EXTT1=
EXTT2=
EXTT3=
EXTT4=
EXTT5=
EXTT6=
EXTT7=
EXTT8=
EXTT9=
EXTT10=
EXTT11=
EXTT12=
EXTT13=
EXTT14=
EXTT15=
EXTT16=
EXTT17=
EXTT18=
EXTT19=
PLAYORDER=
